<svg width="2122" height="2122" viewBox="0 0 2122 2122" fill="none" xmlns="http://www.w3.org/2000/svg">
<circle cx="1061" cy="1061" r="1061" fill="#B7D4EF"/>
<ellipse cx="1443.44" cy="800.97" rx="307.066" ry="354.499" transform="rotate(19.6431 1443.44 800.97)" fill="#EEF0F0" fill-opacity="0.5"/>
<path d="M1711 1172.5L1628.5 1196.32L1628.5 1148.68L1711 1172.5Z" fill="#493843"/>
<line x1="686.201" y1="821.531" x2="591.335" y2="691.715" stroke="#493843" stroke-width="2"/>
<line x1="712.24" y1="823.578" x2="556.933" y2="781.964" stroke="#493843" stroke-width="2"/>
<ellipse cx="1066.47" cy="756.033" rx="319.548" ry="379.464" transform="rotate(-14.2567 1066.47 756.033)" fill="#EEF0F0" fill-opacity="0.7"/>
<ellipse cx="1058.01" cy="1142.79" rx="578.096" ry="463.177" transform="rotate(0.696516 1058.01 1142.79)" fill="#EBBC56"/>
<mask id="mask0" mask-type="alpha" maskUnits="userSpaceOnUse" x="497" y="671" width="1139" height="934">
<ellipse cx="1066.47" cy="1137.99" rx="569.195" ry="466.84" fill="#EBBC56"/>
</mask>
<g mask="url(#mask0)">
<rect x="1266.19" y="686.132" width="199.718" height="918.701" fill="#493843"/>
<rect x="916.684" y="671.153" width="199.718" height="933.68" fill="#493843"/>
</g>
<circle cx="594.5" cy="1088.5" r="27.5" fill="#493843"/>
<circle cx="584.5" cy="688.5" r="22.5" fill="#493843"/>
<circle cx="544.5" cy="783.5" r="22.5" fill="#493843"/>
</svg>
